{
  "accessors": [
    {
      "bufferView": 2,
      "componentType": 5126,
      "count": 20203,
      "max": [
        9.4478130340576172,
        9.1624231338500977,
        21.934965133666992
      ],
      "min": [
        -9.7163009643554688,
        -12.770162582397461,
        -0.00061798095703125
      ],
      "type": "VEC3"
    },
    {
      "bufferView": 2,
      "byteOffset": 242436,
      "componentType": 5126,
      "count": 20203,
      "max": [
        0.99997198581695557,
        0.99997138977050781,
        0.99992960691452026
      ],
      "min": [
        -0.74762183427810669,
        -0.9999808669090271,
        -0.99997478723526001
      ],
      "type": "VEC3"
    },
    {
      "bufferView": 1,
      "componentType": 5126,
      "count": 20203,
      "max": [
        0.99987685680389404,
        0.99694812297821045
      ],
      "min": [
        0.0001220703125,
        0.00012226833496242762
      ],
      "type": "VEC2"
    },
    {
      "bufferView": 0,
      "componentType": 5125,
      "count": 112242,
      "max": [
        20202
      ],
      "min": [
        0
      ],
      "type": "SCALAR"
    },
    {
      "bufferView": 2,
      "byteOffset": 484872,
      "componentType": 5126,
      "count": 16093,
      "max": [
        9.4478130340576172,
        8.9915008544921875,
        21.931251525878906
      ],
      "min": [
        -12.481210708618164,
        -12.768513679504395,
        0.52721118927001953
      ],
      "type": "VEC3"
    },
    {
      "bufferView": 2,
      "byteOffset": 677988,
      "componentType": 5126,
      "count": 16093,
      "max": [
        0.99995893239974976,
        0.98432421684265137,
        0.99958306550979614
      ],
      "min": [
        -0.99997854232788086,
        -0.99991446733474731,
        -0.95098000764846802
      ],
      "type": "VEC3"
    },
    {
      "bufferView": 1,
      "byteOffset": 161624,
      "componentType": 5126,
      "count": 16093,
      "max": [
        0.9998476505279541,
        0.99645984172821045
      ],
      "min": [
        0.0001220703125,
        0.0001522494712844491
      ],
      "type": "VEC2"
    },
    {
      "bufferView": 0,
      "byteOffset": 448968,
      "componentType": 5125,
      "count": 90207,
      "max": [
        16092
      ],
      "min": [
        0
      ],
      "type": "SCALAR"
    },
    {
      "bufferView": 2,
      "byteOffset": 871104,
      "componentType": 5126,
      "count": 10542,
      "max": [
        9.425501823425293,
        8.8516254425048828,
        21.921340942382812
      ],
      "min": [
        -12.473018646240234,
        -12.714746475219727,
        3.1027107238769531
      ],
      "type": "VEC3"
    },
    {
      "bufferView": 2,
      "byteOffset": 997608,
      "componentType": 5126,
      "count": 10542,
      "max": [
        0.99790751934051514,
        0.97149807214736938,
        0.99862152338027954
      ],
      "min": [
        -0.99927353858947754,
        -0.99641942977905273,
        -0.71527218818664551
      ],
      "type": "VEC3"
    },
    {
      "bufferView": 1,
      "byteOffset": 290368,
      "componentType": 5126,
      "count": 10542,
      "max": [
        0.9954531192779541,
        0.70104968547821045
      ],
      "min": [
        0.0001220703125,
        0.00015141500625759363
      ],
      "type": "VEC2"
    },
    {
      "bufferView": 0,
      "byteOffset": 809796,
      "componentType": 5125,
      "count": 59055,
      "max": [
        10541
      ],
      "min": [
        0
      ],
      "type": "SCALAR"
    }
  ],
  "asset": {
    "extras": {
      "author": "matousekfoto (https://sketchfab.com/matousekfoto)",
      "license": "CC-BY-4.0 (http://creativecommons.org/licenses/by/4.0/)",
      "source": "https://sketchfab.com/3d-models/earth-globe-98d2b04d46474bafb4250cc75dc583b3",
      "title": "Earth Globe 🌍"
    },
    "generator": "Sketchfab-9.6.0",
    "version": "2.0"
  },
  "bufferViews": [
    {
      "buffer": 0,
      "byteLength": 1046016,
      "byteOffset": 0,
      "name": "floatBufferViews",
      "target": 34963
    },
    {
      "buffer": 0,
      "byteLength": 374704,
      "byteOffset": 1046016,
      "byteStride": 8,
      "name": "floatBufferViews",
      "target": 34962
    },
    {
      "buffer": 0,
      "byteLength": 1124112,
      "byteOffset": 1420720,
      "byteStride": 12,
      "name": "floatBufferViews",
      "target": 34962
    }
  ],
  "buffers": [
    {
      "byteLength": 2544832,
      "uri": "scene.bin"
    }
  ],
  "extensionsUsed": [
    "KHR_materials_unlit"
  ],
  "images": [
    {
      "uri": "textures/Material_u1_v1_baseColor.jpeg"
    },
    {
      "uri": "textures/Material_u2_v1_baseColor.jpeg"
    },
    {
      "uri": "textures/Material_u1_v2_baseColor.jpeg"
    }
  ],
  "materials": [
    {
      "doubleSided": true,
      "extensions": {
        "KHR_materials_unlit": {}
      },
      "name": "Material_u1_v1",
      "pbrMetallicRoughness": {
        "baseColorFactor": [
          1,
          1,
          1,
          1
        ],
        "baseColorTexture": {
          "index": 0,
          "texCoord": 0
        },
        "metallicFactor": 0,
        "roughnessFactor": 1
      }
    },
    {
      "doubleSided": true,
      "emissiveFactor": [
        0,
        0,
        0
      ],
      "extensions": {
        "KHR_materials_unlit": {}
      },
      "name": "Material_u2_v1",
      "pbrMetallicRoughness": {
        "baseColorFactor": [
          1,
          1,
          1,
          1
        ],
        "baseColorTexture": {
          "index": 1,
          "texCoord": 0
        },
        "metallicFactor": 0,
        "roughnessFactor": 1
      }
    },
    {
      "doubleSided": true,
      "emissiveFactor": [
        0,
        0,
        0
      ],
      "extensions": {
        "KHR_materials_unlit": {}
      },
      "name": "Material_u1_v2",
      "pbrMetallicRoughness": {
        "baseColorFactor": [
          1,
          1,
          1,
          1
        ],
        "baseColorTexture": {
          "index": 2,
          "texCoord": 0
        },
        "metallicFactor": 0,
        "roughnessFactor": 1
      }
    }
  ],
  "meshes": [
    {
      "name": "meshNode_Material_u1_v1_0",
      "primitives": [
        {
          "attributes": {
            "NORMAL": 1,
            "POSITION": 0,
            "TEXCOORD_0": 2
          },
          "indices": 3,
          "material": 0,
          "mode": 4
        }
      ]
    },
    {
      "name": "meshNode_Material_u2_v1_0",
      "primitives": [
        {
          "attributes": {
            "NORMAL": 5,
            "POSITION": 4,
            "TEXCOORD_0": 6
          },
          "indices": 7,
          "material": 1,
          "mode": 4
        }
      ]
    },
    {
      "name": "meshNode_Material_u1_v2_0",
      "primitives": [
        {
          "attributes": {
            "NORMAL": 9,
            "POSITION": 8,
            "TEXCOORD_0": 10
          },
          "indices": 11,
          "material": 2,
          "mode": 4
        }
      ]
    }
  ],
  "nodes": [
    {
      "children": [
        1
      ],
      "name": "RootNode (gltf orientation matrix)",
      "rotation": [
        -0.70710678118654746,
        -0,
        -0,
        0.70710678118654757
      ]
    },
    {
      "children": [
        2
      ],
      "matrix": [
        -0.89520692825317383,
        0,
        0.44565075635910034,
        0,
        0,
        1,
        0,
        0,
        -0.44565075635910034,
        0,
        -0.89520692825317383,
        0,
        -5.1772623062133789,
        0,
        -20.678810119628906,
        1
      ],
      "name": "RootNode (model correction matrix)"
    },
    {
      "children": [
        3
      ],
      "matrix": [
        1,
        0,
        0,
        0,
        0,
        -1,
        0,
        0,
        0,
        0,
        -1,
        0,
        0,
        0,
        0,
        1
      ],
      "name": "G-earth-screensHD.fbx"
    },
    {
      "children": [
        4
      ],
      "name": "RootNode"
    },
    {
      "children": [
        5,
        6,
        7
      ],
      "name": "meshNode"
    },
    {
      "mesh": 0,
      "name": "meshNode_Material_u1_v1_0"
    },
    {
      "mesh": 1,
      "name": "meshNode_Material_u2_v1_0"
    },
    {
      "mesh": 2,
      "name": "meshNode_Material_u1_v2_0"
    }
  ],
  "samplers": [
    {
      "magFilter": 9729,
      "minFilter": 9987,
      "wrapS": 10497,
      "wrapT": 10497
    }
  ],
  "scene": 0,
  "scenes": [
    {
      "name": "OSG_Scene",
      "nodes": [
        0
      ]
    }
  ],
  "textures": [
    {
      "sampler": 0,
      "source": 0
    },
    {
      "sampler": 0,
      "source": 1
    },
    {
      "sampler": 0,
      "source": 2
    }
  ]
}

